<svg width="164" height="264" viewBox="0 0 164 264" fill="none" xmlns="http://www.w3.org/2000/svg">
<path d="M108.966 32.0498C108.966 31.0578 109.302 30.2258 109.974 29.5538C110.646 28.8818 111.478 28.5458 112.47 28.5458C113.462 28.5458 114.294 28.8818 114.966 29.5538C115.638 30.2258 115.974 31.0578 115.974 32.0498C115.974 33.0098 115.638 33.8258 114.966 34.4978C114.294 35.1698 113.462 35.5058 112.47 35.5058C111.478 35.5058 110.646 35.1698 109.974 34.4978C109.302 33.8258 108.966 33.0098 108.966 32.0498Z" fill="white"/>
<path d="M39.3616 32.0498C39.3616 31.0578 39.6976 30.2258 40.3696 29.5538C41.0416 28.8818 41.8736 28.5458 42.8656 28.5458C43.8576 28.5458 44.6896 28.8818 45.3616 29.5538C46.0336 30.2258 46.3696 31.0578 46.3696 32.0498C46.3696 33.0098 46.0336 33.8258 45.3616 34.4978C44.6896 35.1698 43.8576 35.5058 42.8656 35.5058C41.8736 35.5058 41.0416 35.1698 40.3696 34.4978C39.6976 33.8258 39.3616 33.0098 39.3616 32.0498Z" fill="white"/>
<path d="M110.664 61.4114C110.664 60.4194 111 59.5874 111.672 58.9154C112.344 58.2434 113.176 57.9074 114.168 57.9074C115.16 57.9074 115.992 58.2434 116.664 58.9154C117.336 59.5874 117.672 60.4194 117.672 61.4114C117.672 62.3714 117.336 63.1874 116.664 63.8594C115.992 64.5314 115.16 64.8674 114.168 64.8674C113.176 64.8674 112.344 64.5314 111.672 63.8594C111 63.1874 110.664 62.3714 110.664 61.4114Z" fill="white"/>
<path d="M110.664 115.94C110.664 114.948 111 114.116 111.672 113.444C112.344 112.772 113.176 112.436 114.168 112.436C115.16 112.436 115.992 112.772 116.664 113.444C117.336 114.116 117.672 114.948 117.672 115.94C117.672 116.9 117.336 117.716 116.664 118.388C115.992 119.06 115.16 119.396 114.168 119.396C113.176 119.396 112.344 119.06 111.672 118.388C111 117.716 110.664 116.9 110.664 115.94Z" fill="white"/>
<g filter="url(#filter0_d_35_364)">
<path d="M75.9424 117.338C75.9424 116.346 76.2784 115.514 76.9504 114.842C77.6224 114.17 78.4544 113.834 79.4464 113.834C80.4384 113.834 81.2704 114.17 81.9424 114.842C82.6144 115.514 82.9504 116.346 82.9504 117.338C82.9504 118.298 82.6144 119.114 81.9424 119.786C81.2704 120.458 80.4384 120.794 79.4464 120.794C78.4544 120.794 77.6224 120.458 76.9504 119.786C76.2784 119.114 75.9424 118.298 75.9424 117.338Z" fill="white"/>
<path d="M75.9424 89.3747C75.9424 88.3827 76.2784 87.5507 76.9504 86.8787C77.6224 86.2067 78.4544 85.8707 79.4464 85.8707C80.4384 85.8707 81.2704 86.2067 81.9424 86.8787C82.6144 87.5507 82.9504 88.3827 82.9504 89.3747C82.9504 90.3347 82.6144 91.1507 81.9424 91.8227C81.2704 92.4947 80.4384 92.8307 79.4464 92.8307C78.4544 92.8307 77.6224 92.4947 76.9504 91.8227C76.2784 91.1507 75.9424 90.3347 75.9424 89.3747Z" fill="white"/>
<path d="M75.9424 61.4114C75.9424 60.4194 76.2784 59.5874 76.9504 58.9154C77.6224 58.2434 78.4544 57.9074 79.4464 57.9074C80.4384 57.9074 81.2704 58.2434 81.9424 58.9154C82.6144 59.5874 82.9504 60.4194 82.9504 61.4114C82.9504 62.3714 82.6144 63.1874 81.9424 63.8594C81.2704 64.5314 80.4384 64.8674 79.4464 64.8674C78.4544 64.8674 77.6224 64.5314 76.9504 63.8594C76.2784 63.1874 75.9424 62.3714 75.9424 61.4114Z" fill="white"/>
<path d="M75.9425 32.0498C75.9425 31.0578 76.2785 30.2258 76.9505 29.5538C77.6225 28.8818 78.4545 28.5458 79.4465 28.5458C80.4385 28.5458 81.2705 28.8818 81.9425 29.5538C82.6145 30.2258 82.9505 31.0578 82.9505 32.0498C82.9505 33.0098 82.6145 33.8258 81.9425 34.4978C81.2705 35.1698 80.4385 35.5058 79.4465 35.5058C78.4545 35.5058 77.6225 35.1698 76.9505 34.4978C76.2785 33.8258 75.9425 33.0098 75.9425 32.0498Z" fill="white"/>
<path d="M5.40822 32.0498C5.40822 31.0578 5.74422 30.2258 6.41622 29.5538C7.08822 28.8818 7.92022 28.5458 8.91222 28.5458C9.90422 28.5458 10.7362 28.8818 11.4082 29.5538C12.0802 30.2258 12.4162 31.0578 12.4162 32.0498C12.4162 33.0098 12.0802 33.8258 11.4082 34.4978C10.7362 35.1698 9.90422 35.5058 8.91222 35.5058C7.92022 35.5058 7.08822 35.1698 6.41622 34.4978C5.74422 33.8258 5.40822 33.0098 5.40822 32.0498Z" fill="white"/>
<path d="M38.5936 115.94C38.5936 114.948 38.9296 114.116 39.6016 113.444C40.2736 112.772 41.1056 112.436 42.0976 112.436C43.0896 112.436 43.9216 112.772 44.5936 113.444C45.2656 114.116 45.6016 114.948 45.6016 115.94C45.6016 116.9 45.2656 117.716 44.5936 118.388C43.9216 119.06 43.0896 119.396 42.0976 119.396C41.1056 119.396 40.2736 119.06 39.6016 118.388C38.9296 117.716 38.5936 116.9 38.5936 115.94Z" fill="white"/>
<path d="M4.64023 117.338C4.64023 116.346 4.97623 115.514 5.64823 114.842C6.32023 114.17 7.15223 113.834 8.14423 113.834C9.13623 113.834 9.96823 114.17 10.6402 114.842C11.3122 115.514 11.6482 116.346 11.6482 117.338C11.6482 118.298 11.3122 119.114 10.6402 119.786C9.96823 120.458 9.13623 120.794 8.14423 120.794C7.15223 120.794 6.32023 120.458 5.64823 119.786C4.97623 119.114 4.64023 118.298 4.64023 117.338Z" fill="white"/>
<path d="M40.2913 62.8095C40.2913 61.8175 40.6273 60.9855 41.2993 60.3135C41.9713 59.6415 42.8033 59.3055 43.7953 59.3055C44.7873 59.3055 45.6193 59.6415 46.2913 60.3135C46.9633 60.9855 47.2993 61.8175 47.2993 62.8095C47.2993 63.7695 46.9633 64.5855 46.2913 65.2575C45.6193 65.9295 44.7873 66.2655 43.7953 66.2655C42.8033 66.2655 41.9713 65.9295 41.2993 65.2575C40.6273 64.5855 40.2913 63.7695 40.2913 62.8095Z" fill="white"/>
<path d="M6.33797 61.4114C6.33797 60.4194 6.67397 59.5874 7.34597 58.9154C8.01797 58.2434 8.84997 57.9074 9.84197 57.9074C10.834 57.9074 11.666 58.2434 12.338 58.9154C13.01 59.5874 13.346 60.4194 13.346 61.4114C13.346 62.3714 13.01 63.1874 12.338 63.8594C11.666 64.5314 10.834 64.8674 9.84197 64.8674C8.84997 64.8674 8.01797 64.5314 7.34597 63.8594C6.67397 63.1874 6.33797 62.3714 6.33797 61.4114Z" fill="white"/>
<path d="M40.2913 89.3747C40.2913 88.3827 40.6273 87.5507 41.2993 86.8787C41.9713 86.2067 42.8033 85.8707 43.7953 85.8707C44.7873 85.8707 45.6193 86.2067 46.2913 86.8787C46.9633 87.5507 47.2993 88.3827 47.2993 89.3747C47.2993 90.3347 46.9633 91.1507 46.2913 91.8227C45.6193 92.4947 44.7873 92.8307 43.7953 92.8307C42.8033 92.8307 41.9713 92.4947 41.2993 91.8227C40.6273 91.1507 40.2913 90.3347 40.2913 89.3747Z" fill="white"/>
<path d="M4.64023 89.3747C4.64023 88.3827 4.97623 87.5507 5.64823 86.8787C6.32023 86.2067 7.15223 85.8707 8.14423 85.8707C9.13623 85.8707 9.96823 86.2067 10.6402 86.8787C11.3122 87.5507 11.6482 88.3827 11.6482 89.3747C11.6482 90.3347 11.3122 91.1507 10.6402 91.8227C9.96823 92.4947 9.13623 92.8307 8.14423 92.8307C7.15223 92.8307 6.32023 92.4947 5.64823 91.8227C4.97623 91.1507 4.64023 90.3347 4.64023 89.3747Z" fill="white"/>
<path d="M6.33797 146.7C6.33797 145.708 6.67397 144.876 7.34597 144.204C8.01797 143.532 8.84997 143.196 9.84197 143.196C10.834 143.196 11.666 143.532 12.338 144.204C13.01 144.876 13.346 145.708 13.346 146.7C13.346 147.66 13.01 148.476 12.338 149.148C11.666 149.82 10.834 150.156 9.84197 150.156C8.84997 150.156 8.01797 149.82 7.34597 149.148C6.67397 148.476 6.33797 147.66 6.33797 146.7Z" fill="white"/>
<path d="M110.664 89.3747C110.664 88.3827 111 87.5507 111.672 86.8787C112.344 86.2067 113.176 85.8707 114.168 85.8707C115.16 85.8707 115.992 86.2067 116.664 86.8787C117.336 87.5507 117.672 88.3827 117.672 89.3747C117.672 90.3347 117.336 91.1507 116.664 91.8227C115.992 92.4947 115.16 92.8307 114.168 92.8307C113.176 92.8307 112.344 92.4947 111.672 91.8227C111 91.1507 110.664 90.3347 110.664 89.3747Z" fill="white"/>
<path d="M4.64023 176.061C4.64023 175.069 4.97623 174.237 5.64823 173.565C6.32023 172.893 7.15223 172.557 8.14423 172.557C9.13623 172.557 9.96823 172.893 10.6402 173.565C11.3122 174.237 11.6482 175.069 11.6482 176.061C11.6482 177.021 11.3122 177.837 10.6402 178.509C9.96823 179.181 9.13623 179.517 8.14423 179.517C7.15223 179.517 6.32023 179.181 5.64823 178.509C4.97623 177.837 4.64023 177.021 4.64023 176.061Z" fill="white"/>
<path d="M4.64023 204.025C4.64023 203.033 4.97623 202.201 5.64823 201.529C6.32023 200.857 7.15223 200.521 8.14423 200.521C9.13623 200.521 9.96823 200.857 10.6402 201.529C11.3122 202.201 11.6482 203.033 11.6482 204.025C11.6482 204.985 11.3122 205.801 10.6402 206.473C9.96823 207.145 9.13623 207.481 8.14423 207.481C7.15223 207.481 6.32023 207.145 5.64823 206.473C4.97623 205.801 4.64023 204.985 4.64023 204.025Z" fill="white"/>
<path d="M4.64023 231.988C4.64023 230.996 4.97623 230.164 5.64823 229.492C6.32023 228.82 7.15223 228.484 8.14423 228.484C9.13623 228.484 9.96823 228.82 10.6402 229.492C11.3122 230.164 11.6482 230.996 11.6482 231.988C11.6482 232.948 11.3122 233.764 10.6402 234.436C9.96823 235.108 9.13623 235.444 8.14423 235.444C7.15223 235.444 6.32023 235.108 5.64823 234.436C4.97623 233.764 4.64023 232.948 4.64023 231.988Z" fill="white"/>
<path d="M39.4021 146.954C39.4021 145.962 39.7381 145.13 40.4101 144.458C41.0821 143.786 41.9141 143.45 42.9061 143.45C43.8981 143.45 44.7301 143.786 45.4021 144.458C46.0741 145.13 46.4101 145.962 46.4101 146.954C46.4101 147.914 46.0741 148.73 45.4021 149.402C44.7301 150.074 43.8981 150.41 42.9061 150.41C41.9141 150.41 41.0821 150.074 40.4101 149.402C39.7381 148.73 39.4021 147.914 39.4021 146.954Z" fill="white"/>
<path d="M39.4021 176.061C39.4021 175.069 39.7381 174.237 40.4101 173.565C41.0821 172.893 41.9141 172.557 42.9061 172.557C43.8981 172.557 44.7301 172.893 45.4021 173.565C46.0741 174.237 46.4101 175.069 46.4101 176.061C46.4101 177.021 46.0741 177.837 45.4021 178.509C44.7301 179.181 43.8981 179.517 42.9061 179.517C41.9141 179.517 41.0821 179.181 40.4101 178.509C39.7381 177.837 39.4021 177.021 39.4021 176.061Z" fill="white"/>
<path d="M39.4021 176.061C39.4021 175.069 39.7381 174.237 40.4101 173.565C41.0821 172.893 41.9141 172.557 42.9061 172.557C43.8981 172.557 44.7301 172.893 45.4021 173.565C46.0741 174.237 46.4101 175.069 46.4101 176.061C46.4101 177.021 46.0741 177.837 45.4021 178.509C44.7301 179.181 43.8981 179.517 42.9061 179.517C41.9141 179.517 41.0821 179.181 40.4101 178.509C39.7381 177.837 39.4021 177.021 39.4021 176.061Z" fill="white"/>
<path d="M39.4021 204.025C39.4021 203.033 39.7381 202.201 40.4101 201.529C41.0821 200.857 41.9141 200.521 42.9061 200.521C43.8981 200.521 44.7301 200.857 45.4021 201.529C46.0741 202.201 46.4101 203.033 46.4101 204.025C46.4101 204.985 46.0741 205.801 45.4021 206.473C44.7301 207.145 43.8981 207.481 42.9061 207.481C41.9141 207.481 41.0821 207.145 40.4101 206.473C39.7381 205.801 39.4021 204.985 39.4021 204.025Z" fill="white"/>
<path d="M39.4021 231.988C39.4021 230.996 39.7381 230.164 40.4101 229.492C41.0821 228.82 41.9141 228.484 42.9061 228.484C43.8981 228.484 44.7301 228.82 45.4021 229.492C46.0741 230.164 46.4101 230.996 46.4101 231.988C46.4101 232.948 46.0741 233.764 45.4021 234.436C44.7301 235.108 43.8981 235.444 42.9061 235.444C41.9141 235.444 41.0821 235.108 40.4101 234.436C39.7381 233.764 39.4021 232.948 39.4021 231.988Z" fill="white"/>
<path d="M75.9021 146.954C75.9021 145.962 76.2381 145.13 76.9101 144.458C77.5821 143.786 78.4141 143.45 79.4061 143.45C80.3981 143.45 81.2301 143.786 81.9021 144.458C82.5741 145.13 82.9101 145.962 82.9101 146.954C82.9101 147.914 82.5741 148.73 81.9021 149.402C81.2301 150.074 80.3981 150.41 79.4061 150.41C78.4141 150.41 77.5821 150.074 76.9101 149.402C76.2381 148.73 75.9021 147.914 75.9021 146.954Z" fill="white"/>
<path d="M75.9021 176.061C75.9021 175.069 76.2381 174.237 76.9101 173.565C77.5821 172.893 78.4141 172.557 79.4061 172.557C80.3981 172.557 81.2301 172.893 81.9021 173.565C82.5741 174.237 82.9101 175.069 82.9101 176.061C82.9101 177.021 82.5741 177.837 81.9021 178.509C81.2301 179.181 80.3981 179.517 79.4061 179.517C78.4141 179.517 77.5821 179.181 76.9101 178.509C76.2381 177.837 75.9021 177.021 75.9021 176.061Z" fill="white"/>
<path d="M75.9021 176.061C75.9021 175.069 76.2381 174.237 76.9101 173.565C77.5821 172.893 78.4141 172.557 79.4061 172.557C80.3981 172.557 81.2301 172.893 81.9021 173.565C82.5741 174.237 82.9101 175.069 82.9101 176.061C82.9101 177.021 82.5741 177.837 81.9021 178.509C81.2301 179.181 80.3981 179.517 79.4061 179.517C78.4141 179.517 77.5821 179.181 76.9101 178.509C76.2381 177.837 75.9021 177.021 75.9021 176.061Z" fill="white"/>
<path d="M75.9021 204.025C75.9021 203.033 76.2381 202.201 76.9101 201.529C77.5821 200.857 78.4141 200.521 79.4061 200.521C80.3981 200.521 81.2301 200.857 81.9021 201.529C82.5741 202.201 82.9101 203.033 82.9101 204.025C82.9101 204.985 82.5741 205.801 81.9021 206.473C81.2301 207.145 80.3981 207.481 79.4061 207.481C78.4141 207.481 77.5821 207.145 76.9101 206.473C76.2381 205.801 75.9021 204.985 75.9021 204.025Z" fill="white"/>
<path d="M75.9021 231.988C75.9021 230.996 76.2381 230.164 76.9101 229.492C77.5821 228.82 78.4141 228.484 79.4061 228.484C80.3981 228.484 81.2301 228.82 81.9021 229.492C82.5741 230.164 82.9101 230.996 82.9101 231.988C82.9101 232.948 82.5741 233.764 81.9021 234.436C81.2301 235.108 80.3981 235.444 79.4061 235.444C78.4141 235.444 77.5821 235.108 76.9101 234.436C76.2381 233.764 75.9021 232.948 75.9021 231.988Z" fill="white"/>
<path d="M109.896 146.7C109.896 145.708 110.232 144.876 110.904 144.204C111.576 143.532 112.408 143.196 113.4 143.196C114.392 143.196 115.224 143.532 115.896 144.204C116.568 144.876 116.904 145.708 116.904 146.7C116.904 147.66 116.568 148.476 115.896 149.148C115.224 149.82 114.392 150.156 113.4 150.156C112.408 150.156 111.576 149.82 110.904 149.148C110.232 148.476 109.896 147.66 109.896 146.7Z" fill="white"/>
<path d="M110.664 176.061C110.664 175.069 111 174.237 111.672 173.565C112.344 172.893 113.176 172.557 114.168 172.557C115.16 172.557 115.992 172.893 116.664 173.565C117.336 174.237 117.672 175.069 117.672 176.061C117.672 177.021 117.336 177.837 116.664 178.509C115.992 179.181 115.16 179.517 114.168 179.517C113.176 179.517 112.344 179.181 111.672 178.509C111 177.837 110.664 177.021 110.664 176.061Z" fill="white"/>
<path d="M110.664 176.061C110.664 175.069 111 174.237 111.672 173.565C112.344 172.893 113.176 172.557 114.168 172.557C115.16 172.557 115.992 172.893 116.664 173.565C117.336 174.237 117.672 175.069 117.672 176.061C117.672 177.021 117.336 177.837 116.664 178.509C115.992 179.181 115.16 179.517 114.168 179.517C113.176 179.517 112.344 179.181 111.672 178.509C111 177.837 110.664 177.021 110.664 176.061Z" fill="white"/>
<path d="M110.664 204.025C110.664 203.033 111 202.201 111.672 201.529C112.344 200.857 113.176 200.521 114.168 200.521C115.16 200.521 115.992 200.857 116.664 201.529C117.336 202.201 117.672 203.033 117.672 204.025C117.672 204.985 117.336 205.801 116.664 206.473C115.992 207.145 115.16 207.481 114.168 207.481C113.176 207.481 112.344 207.145 111.672 206.473C111 205.801 110.664 204.985 110.664 204.025Z" fill="white"/>
<path d="M110.664 231.988C110.664 230.996 111 230.164 111.672 229.492C112.344 228.82 113.176 228.484 114.168 228.484C115.16 228.484 115.992 228.82 116.664 229.492C117.336 230.164 117.672 230.996 117.672 231.988C117.672 232.948 117.336 233.764 116.664 234.436C115.992 235.108 115.16 235.444 114.168 235.444C113.176 235.444 112.344 235.108 111.672 234.436C111 233.764 110.664 232.948 110.664 231.988Z" fill="white"/>
</g>
<defs>
<filter id="filter0_d_35_364" x="0.640236" y="28.5457" width="121.032" height="214.898" filterUnits="userSpaceOnUse" color-interpolation-filters="sRGB">
<feFlood flood-opacity="0" result="BackgroundImageFix"/>
<feColorMatrix in="SourceAlpha" type="matrix" values="0 0 0 0 0 0 0 0 0 0 0 0 0 0 0 0 0 0 127 0" result="hardAlpha"/>
<feOffset dy="4"/>
<feGaussianBlur stdDeviation="2"/>
<feComposite in2="hardAlpha" operator="out"/>
<feColorMatrix type="matrix" values="0 0 0 0 0 0 0 0 0 0 0 0 0 0 0 0 0 0 0.25 0"/>
<feBlend mode="normal" in2="BackgroundImageFix" result="effect1_dropShadow_35_364"/>
<feBlend mode="normal" in="SourceGraphic" in2="effect1_dropShadow_35_364" result="shape"/>
</filter>
</defs>
</svg>
