<svg width="127" height="37" viewBox="0 0 127 37" fill="none" xmlns="http://www.w3.org/2000/svg">
<path d="M21 2.496V7.92H7.032V16.512H17.736V21.84H7.032V36H0.312V2.496H21ZM32.4851 13.536C33.3491 12.128 34.4691 11.024 35.8451 10.224C37.2531 9.424 38.8531 9.024 40.6451 9.024V16.08H38.8691C36.7571 16.08 35.1571 16.576 34.0691 17.568C33.0131 18.56 32.4851 20.288 32.4851 22.752V36H25.7651V9.408H32.4851V13.536ZM69.8914 22.128C69.8914 23.088 69.8274 23.952 69.6994 24.72H50.2594C50.4194 26.64 51.0914 28.144 52.2754 29.232C53.4594 30.32 54.9154 30.864 56.6434 30.864C59.1394 30.864 60.9154 29.792 61.9714 27.648H69.2194C68.4514 30.208 66.9794 32.32 64.8034 33.984C62.6274 35.616 59.9554 36.432 56.7874 36.432C54.2274 36.432 51.9234 35.872 49.8754 34.752C47.8594 33.6 46.2754 31.984 45.1234 29.904C44.0034 27.824 43.4434 25.424 43.4434 22.704C43.4434 19.952 44.0034 17.536 45.1234 15.456C46.2434 13.376 47.8114 11.776 49.8274 10.656C51.8434 9.536 54.1634 8.976 56.7874 8.976C59.3154 8.976 61.5714 9.52 63.5554 10.608C65.5714 11.696 67.1234 13.248 68.2114 15.264C69.3314 17.248 69.8914 19.536 69.8914 22.128ZM62.9314 20.208C62.8994 18.48 62.2754 17.104 61.0594 16.08C59.8434 15.024 58.3554 14.496 56.5954 14.496C54.9314 14.496 53.5234 15.008 52.3714 16.032C51.2514 17.024 50.5634 18.416 50.3074 20.208H62.9314ZM84.9724 36.432C82.7964 36.432 80.8444 36.048 79.1164 35.28C77.3884 34.48 76.0124 33.408 74.9884 32.064C73.9964 30.72 73.4524 29.232 73.3564 27.6H80.1244C80.2524 28.624 80.7484 29.472 81.6124 30.144C82.5084 30.816 83.6124 31.152 84.9244 31.152C86.2044 31.152 87.1964 30.896 87.9004 30.384C88.6364 29.872 89.0044 29.216 89.0044 28.416C89.0044 27.552 88.5564 26.912 87.6604 26.496C86.7964 26.048 85.4044 25.568 83.4844 25.056C81.5004 24.576 79.8684 24.08 78.5884 23.568C77.3404 23.056 76.2524 22.272 75.3244 21.216C74.4284 20.16 73.9804 18.736 73.9804 16.944C73.9804 15.472 74.3964 14.128 75.2284 12.912C76.0924 11.696 77.3084 10.736 78.8764 10.032C80.4764 9.328 82.3484 8.976 84.4924 8.976C87.6604 8.976 90.1884 9.776 92.0764 11.376C93.9644 12.944 95.0044 15.072 95.1964 17.76H88.7644C88.6684 16.704 88.2204 15.872 87.4204 15.264C86.6524 14.624 85.6124 14.304 84.3004 14.304C83.0844 14.304 82.1404 14.528 81.4684 14.976C80.8284 15.424 80.5084 16.048 80.5084 16.848C80.5084 17.744 80.9564 18.432 81.8524 18.912C82.7484 19.36 84.1404 19.824 86.0284 20.304C87.9484 20.784 89.5324 21.28 90.7804 21.792C92.0284 22.304 93.1004 23.104 93.9964 24.192C94.9244 25.248 95.4044 26.656 95.4364 28.416C95.4364 29.952 95.0044 31.328 94.1404 32.544C93.3084 33.76 92.0924 34.72 90.4924 35.424C88.9244 36.096 87.0844 36.432 84.9724 36.432ZM115.929 9.024C117.945 9.024 119.737 9.472 121.305 10.368C122.873 11.232 124.089 12.528 124.953 14.256C125.849 15.952 126.297 18 126.297 20.4V36H119.577V21.312C119.577 19.2 119.049 17.584 117.993 16.464C116.937 15.312 115.497 14.736 113.673 14.736C111.817 14.736 110.345 15.312 109.257 16.464C108.201 17.584 107.673 19.2 107.673 21.312V36H100.953V0.48H107.673V12.72C108.537 11.568 109.689 10.672 111.129 10.032C112.569 9.36 114.169 9.024 115.929 9.024Z" fill="black"/>
</svg>
